<?xml version="1.0" encoding="UTF-8"?>
<svg version="1.1" xmlns="http://www.w3.org/2000/svg" width="360" height="360">
<path d="M0 0 C118.8 0 237.6 0 360 0 C360 118.8 360 237.6 360 360 C241.2 360 122.4 360 0 360 C0 241.2 0 122.4 0 0 Z " fill="#FEFEFE" transform="translate(0,0)"/>
<path d="M0 0 C118.8 0 237.6 0 360 0 C360 118.8 360 237.6 360 360 C241.2 360 122.4 360 0 360 C0 241.2 0 122.4 0 0 Z M52 64.25 C49.23817068 69.19827752 48.84943805 72.87143061 48.84609985 78.53199768 C48.8417176 79.42573796 48.83733535 80.31947823 48.8328203 81.24030155 C48.81940082 84.25338344 48.81324632 87.26643606 48.80712891 90.27954102 C48.79923027 92.43269484 48.79096147 94.58584733 48.78234863 96.73899841 C48.7560958 103.82728811 48.74081542 110.9155838 48.7265625 118.00390625 C48.72120372 120.4423873 48.71582622 122.88086832 48.71043015 125.31934929 C48.68879457 135.46331679 48.67005824 145.60728268 48.65880775 155.75126743 C48.64257272 170.29497993 48.60941319 184.83842505 48.55240691 199.38203675 C48.51370613 209.60378924 48.49417474 219.82547024 48.48888719 230.04729408 C48.48523329 236.15380312 48.47320784 242.2600272 48.44078445 248.36645699 C48.41070268 254.11453648 48.40439271 259.86215864 48.41616821 265.61030006 C48.41638895 267.71737625 48.4080838 269.82447365 48.39051437 271.93147659 C48.367787 274.81457116 48.37613466 277.69601245 48.39199829 280.57911682 C48.3781162 281.40754563 48.36423412 282.23597445 48.34993136 283.08950716 C48.44673255 290.25929072 51.06503646 296.08090112 56.16796875 301.15625 C56.83441406 301.5996875 57.50085938 302.043125 58.1875 302.5 C58.86167969 302.9640625 59.53585938 303.428125 60.23046875 303.90625 C64.39271793 306.47894265 68.21246707 306.15430413 72.98756409 306.16062927 C73.93030699 306.16571709 74.8730499 306.17080491 75.84436077 306.17604691 C79.02327349 306.19182179 82.20216341 306.20030977 85.38110352 306.20874023 C87.65248257 306.21827475 89.92386015 306.22816573 92.19523621 306.23838806 C99.67310858 306.2698237 107.15099225 306.2900475 114.62890625 306.30859375 C116.53606356 306.31353973 116.53606356 306.31353973 118.4817493 306.31858563 C130.46951799 306.34937192 142.45728814 306.37624639 154.44508457 306.39300442 C157.22258577 306.39695389 160.00008687 306.40095688 162.77758789 306.4050293 C163.46791872 306.40603766 164.15824955 306.40704602 164.8694995 306.40808494 C176.04402657 306.4250795 187.21833171 306.46617345 198.39275051 306.51705229 C209.86814784 306.56887101 221.34337514 306.59747024 232.81889862 306.6052013 C239.26080324 306.61015919 245.70231377 306.62525368 252.14410591 306.6649456 C258.20740755 306.70181151 264.27009 306.71022124 270.33348274 306.69693947 C272.5566709 306.69699342 274.77988649 306.70729057 277.00297165 306.7286911 C280.0439095 306.75639492 283.08259281 306.74685317 286.12355042 306.72825623 C287.4362307 306.75344862 287.4362307 306.75344862 288.77542979 306.77914995 C295.51499898 306.67650001 299.89030035 304.34113726 305 300 C310.31365696 293.46011451 311.29797772 287.19709745 311.27415466 279.06291199 C311.27939134 278.17392112 311.28462802 277.28493024 311.29002339 276.36900026 C311.30500176 273.39593812 311.30572806 270.42304842 311.30639648 267.44995117 C311.31401938 265.31590994 311.3224471 263.18187144 311.33161926 261.0478363 C311.35355738 255.25437833 311.36236219 249.46097314 311.36744571 243.66747832 C311.37108988 240.04681444 311.37733025 236.42616437 311.3844471 232.80550575 C311.40893856 220.17103086 311.42199298 207.53659702 311.42553711 194.90209961 C311.42917282 183.13003646 311.45907171 171.35823396 311.50094169 159.58625048 C311.53564321 149.4748108 311.55108552 139.3634575 311.55178314 129.25195867 C311.55257595 123.21482676 311.56131702 117.17796044 311.58978081 111.14089012 C311.61595895 105.46168358 311.61816768 99.78296288 311.60212517 94.10372353 C311.60031054 92.02245143 311.60700253 89.94115141 311.62294388 87.85993958 C311.64342326 85.01206688 311.63284161 82.16589118 311.61473083 79.31803894 C311.63453079 78.09116128 311.63453079 78.09116128 311.65473074 76.83949822 C311.55646227 70.04506812 309.19903598 64.37384407 304.48653215 59.40383023 C300.60198497 56.04014242 297.08987806 53.75563644 291.90971851 53.73714447 C290.693876 53.72562104 290.693876 53.72562104 289.453471 53.7138648 C288.56856144 53.71559777 287.68365188 53.71733073 286.77192688 53.71911621 C285.35524925 53.71020284 285.35524925 53.71020284 283.90995187 53.70110941 C280.73721413 53.68373117 277.56462729 53.6807186 274.3918457 53.67773438 C272.12016985 53.66847825 269.84849711 53.65842897 267.576828 53.64764404 C261.39897284 53.62138828 255.22116115 53.60850446 249.04325891 53.59962273 C245.18373736 53.59376208 241.32422771 53.58555259 237.46471214 53.57661438 C226.77336257 53.55239574 216.08202751 53.53163237 205.39065266 53.5248642 C204.70657139 53.52442506 204.02249012 53.52398593 203.31767912 53.52353349 C202.28913452 53.52287866 202.28913452 53.52287866 201.23981124 53.5222106 C199.85038522 53.52132367 198.46095921 53.52043055 197.0715332 53.51953125 C196.38233338 53.51908839 195.69313355 53.51864553 194.98304888 53.51818925 C183.82157127 53.51029729 172.66035513 53.47540121 161.49897847 53.42881221 C150.03254614 53.38133733 138.56630365 53.35697385 127.09976071 53.35412836 C120.66460831 53.35203221 114.22982464 53.34021647 107.79476357 53.30448914 C101.73962319 53.27152572 95.68512864 53.26721704 89.6299305 53.28476715 C87.40997335 53.28630787 85.18998148 53.27762242 82.97011185 53.25785065 C79.93363858 53.23239615 76.89945013 53.24416785 73.86299133 53.26501465 C72.5523574 53.24084543 72.5523574 53.24084543 71.21524602 53.21618795 C62.81072644 53.35068151 56.53738441 57.18206911 52 64.25 Z " fill="#FEFEFE" transform="translate(0,0)"/>
<path d="M0 0 C0.97583038 -0.00701431 1.95166077 -0.01402863 2.95706177 -0.02125549 C4.02624847 -0.01361176 5.09543518 -0.00596802 6.19702148 0.00190735 C7.88757156 -0.00356865 7.88757156 -0.00356865 9.61227417 -0.00915527 C13.34770653 -0.01727902 17.08270759 -0.00363506 20.81811523 0.01094055 C23.40738932 0.01145894 25.9966638 0.01094207 28.5859375 0.00942993 C34.01658459 0.00951974 39.44707289 0.01962899 44.87768555 0.03804016 C51.15739152 0.05920799 57.43691463 0.06271774 63.71664906 0.0564782 C69.75602318 0.05078456 75.79531599 0.05653445 81.83468628 0.06765175 C84.40558614 0.07150887 86.97649153 0.07264985 89.5473938 0.0710659 C93.13643982 0.07069624 96.72520503 0.08328799 100.31420898 0.0995636 C101.91798904 0.09584747 101.91798904 0.09584747 103.5541687 0.09205627 C105.01791428 0.10268349 105.01791428 0.10268349 106.51123047 0.11352539 C107.78437355 0.1166047 107.78437355 0.1166047 109.08323669 0.11974621 C111.25561523 0.3742218 111.25561523 0.3742218 114.25561523 2.3742218 C114.55260431 5.0551037 114.65471185 7.50553672 114.62792969 10.18867493 C114.63158035 10.99530075 114.63523102 11.80192657 114.63899231 12.63299561 C114.64711835 15.30736651 114.63347094 17.98113539 114.61889648 20.6554718 C114.61837812 22.50870259 114.61889489 24.36193394 114.6204071 26.21516418 C114.62031729 30.10241384 114.60986895 33.98945649 114.59179688 37.87666321 C114.56910937 42.86720218 114.5685646 47.85743849 114.57531452 52.84801483 C114.57865106 56.67578333 114.57203038 60.50348244 114.56218529 64.33123779 C114.55832754 66.17169838 114.55718744 68.01216667 114.55877113 69.85263062 C114.55914071 72.42182709 114.54655197 74.99063099 114.53027344 77.55976868 C114.53275085 78.32554733 114.53522827 79.09132599 114.53778076 79.88031006 C114.48435636 85.14548068 114.48435636 85.14548068 112.25561523 87.3742218 C110.17225647 87.6286974 110.17225647 87.6286974 107.54882812 87.63491821 C106.05973434 87.64554543 106.05973434 87.64554543 104.54055786 87.65638733 C103.44750336 87.65390991 102.35444885 87.6514325 101.22827148 87.64888 C99.50627029 87.6565464 99.50627029 87.6565464 97.7494812 87.66436768 C93.93897347 87.67831534 90.12864552 87.67730314 86.31811523 87.67500305 C83.68017509 87.67888685 81.04223557 87.68322085 78.40429688 87.68798828 C72.86936843 87.69620783 67.334491 87.69528856 61.79956055 87.68989563 C55.39542121 87.68385192 48.99150136 87.6961749 42.58739948 87.7174657 C36.43323139 87.73717567 30.27916629 87.74025914 24.12496948 87.73673058 C21.50299565 87.7372457 18.88101845 87.74251905 16.25906372 87.7525425 C12.60018767 87.76481337 8.94182616 87.75817153 5.28295898 87.74653625 C4.18990448 87.75417999 3.09684998 87.76182373 1.97067261 87.7696991 C0.97794342 87.76268478 -0.01478577 87.75567047 -1.03759766 87.7484436 C-1.90332901 87.74861135 -2.76906036 87.74877909 -3.661026 87.74895191 C-4.34853439 87.62529098 -5.03604279 87.50163004 -5.74438477 87.3742218 C-8.1997401 83.6911888 -8.03326834 80.90576974 -8.01904297 76.64570618 C-8.0241539 75.86004776 -8.02926483 75.07438934 -8.03453064 74.2649231 C-8.04843995 71.66586203 -8.04746907 69.06706568 -8.04516602 66.4679718 C-8.04905183 64.66340536 -8.05338627 62.85883984 -8.05815125 61.05427551 C-8.06561605 57.27140844 -8.06532002 53.48863469 -8.06005859 49.70576477 C-8.05425954 44.85317683 -8.07120413 40.00097002 -8.09440327 35.14844513 C-8.10911877 31.42186746 -8.11001537 27.69538209 -8.10689354 23.96878052 C-8.10740772 22.17937464 -8.11266352 20.38996372 -8.12270546 18.60058594 C-8.13501228 16.10104929 -8.12831359 13.60226166 -8.11669922 11.10273743 C-8.12434296 10.36082657 -8.13198669 9.61891571 -8.13986206 8.85452271 C-8.0883203 3.84801626 -8.0883203 3.84801626 -6.51751995 1.68413258 C-4.21154136 -0.01941841 -2.85344602 -0.00056393 0 0 Z " fill="#FCFCFC" transform="translate(133.744384765625,113.62577819824219)"/>
<path d="M0 0 C0.94274291 -0.00508782 1.88548581 -0.01017564 2.85679668 -0.01541764 C6.03570941 -0.03119252 9.21459932 -0.0396805 12.39353943 -0.04811096 C14.66491848 -0.05764548 16.93629606 -0.06753646 19.20767212 -0.07775879 C26.6855445 -0.10919443 34.16342817 -0.12941823 41.64134216 -0.14796448 C43.54849947 -0.15291046 43.54849947 -0.15291046 45.49418521 -0.15795636 C57.4819539 -0.18874264 69.46972406 -0.21561712 81.45752048 -0.23237514 C84.23502168 -0.23632462 87.01252279 -0.24032761 89.7900238 -0.24440002 C90.48035463 -0.24540839 91.17068546 -0.24641675 91.88193541 -0.24745566 C103.05646249 -0.26445023 114.23076762 -0.30554418 125.40518642 -0.35642301 C136.88058375 -0.40824173 148.35581105 -0.43684097 159.83133453 -0.44457203 C166.27323916 -0.44952991 172.71474968 -0.4646244 179.15654182 -0.50431633 C185.21984346 -0.54118223 191.28252591 -0.54959197 197.34591866 -0.5363102 C199.56910682 -0.53636415 201.7923224 -0.5466613 204.01540756 -0.56806183 C207.05634541 -0.59576565 210.09502872 -0.5862239 213.13598633 -0.56762695 C214.44866662 -0.59281935 214.44866662 -0.59281935 215.7878657 -0.61852068 C222.47408242 -0.51668335 227.01894273 1.72155477 232.01243591 6.16062927 C236.73140616 12.3260605 238.16131129 16.88538316 238.15960693 24.60997009 C238.16328362 25.4948377 238.16696031 26.37970531 238.17074841 27.29138708 C238.18181478 30.27449962 238.18563414 33.25757737 238.18943787 36.2407074 C238.19570046 38.3725343 238.20234707 40.5043601 238.20935059 42.63618469 C238.22678321 48.44233385 238.23731923 54.24847476 238.24555612 60.05464363 C238.25070313 63.68198922 238.2567791 67.30933225 238.26306725 70.93667603 C238.28212851 82.2849629 238.29635576 93.63324325 238.30467921 104.98154306 C238.31444591 118.08181682 238.34074683 131.18192135 238.38118011 144.28213549 C238.41135246 154.40539204 238.4261493 164.52860013 238.42946023 174.65190077 C238.43181008 180.6985928 238.44076188 186.74510425 238.4659214 192.79174805 C238.48922547 198.48479481 238.49342577 204.17754242 238.48316002 209.87062454 C238.48266507 211.95631023 238.48897347 214.04201075 238.50271606 216.12765121 C238.64477778 238.97268021 238.64477778 238.97268021 232.60045338 245.74196625 C231.07493591 247.09812927 231.07493591 247.09812927 228.01243591 249.16062927 C227.31708111 249.68989486 226.6217263 250.21916044 225.90530014 250.76446438 C221.80005174 252.74575463 218.16759448 252.58548912 213.66410828 252.56176758 C212.7188021 252.56856425 211.77349592 252.57536092 210.7995441 252.58236355 C207.62983654 252.6013641 204.46051445 252.59889683 201.29075623 252.59642029 C199.01893109 252.6053961 196.74711054 252.61560393 194.47529602 252.62695312 C188.30160656 252.65347735 182.12804181 252.66048768 175.95430088 252.66240048 C170.80031412 252.66524849 165.64635643 252.6762844 160.49238086 252.68691677 C149.02581461 252.70995681 137.55932959 252.71892249 126.09274617 252.71690071 C125.40495472 252.71678085 124.71716327 252.71666098 124.00852966 252.71653748 C123.31989534 252.71641483 122.63126101 252.71629219 121.92175898 252.71616583 C110.76680161 252.71494704 99.61214832 252.74364138 88.45727888 252.78595258 C76.99532296 252.82908436 65.5335768 252.84921194 54.07152629 252.84717125 C47.63975719 252.84640652 41.2083321 252.85494711 34.77663422 252.8867054 C28.7255643 252.91576769 22.67516677 252.9159738 16.62407303 252.8941555 C14.40573519 252.89102014 12.18735537 252.89809407 9.96908951 252.91623688 C6.93483831 252.93944195 3.90290056 252.92544035 0.86869812 252.90234375 C-0.00437571 252.91777444 -0.87744955 252.93320513 -1.77698016 252.94910342 C-8.4540719 252.83716956 -12.99966345 250.5918568 -17.98756409 246.16062927 C-22.72814249 239.96740453 -24.13688829 235.38803136 -24.14146423 227.62863159 C-24.14584649 226.73489132 -24.15022874 225.84115104 -24.15474379 224.92032772 C-24.16816327 221.90724583 -24.17431777 218.89419321 -24.18043518 215.88108826 C-24.18833381 213.72793443 -24.19660261 211.57478194 -24.20521545 209.42163086 C-24.23146829 202.33334117 -24.24674866 195.24504547 -24.26100159 188.15672302 C-24.26636037 185.71824197 -24.27173787 183.27976096 -24.27713394 180.84127998 C-24.29876951 170.69731248 -24.31750585 160.55334659 -24.32875633 150.40936184 C-24.34499136 135.86564934 -24.3781509 121.32220422 -24.43515718 106.77859253 C-24.47385796 96.55684003 -24.49338935 86.33515903 -24.4986769 76.11333519 C-24.50233079 70.00682615 -24.51435625 63.90060207 -24.54677963 57.79417229 C-24.57686141 52.04609279 -24.58317138 46.29847063 -24.57139587 40.55032921 C-24.57117514 38.44325302 -24.57948029 36.33615562 -24.59704971 34.22915268 C-24.61977709 31.34605811 -24.61142943 28.46461682 -24.5955658 25.58151245 C-24.60944788 24.75308364 -24.62332997 23.92465483 -24.63763273 23.07112211 C-24.54083154 15.90133856 -21.92252763 10.07972815 -16.81959534 5.00437927 C-16.15315002 4.56094177 -15.48670471 4.11750427 -14.80006409 3.66062927 C-14.1258844 3.19656677 -13.45170471 2.73250427 -12.75709534 2.25437927 C-8.59484616 -0.31831338 -4.77509702 0.00632514 0 0 Z M-15.39331818 13.34649754 C-17.48976841 17.56203426 -17.54603582 21.55100584 -17.49549866 26.18673706 C-17.50173862 27.07320437 -17.50797858 27.95967168 -17.51440763 28.87300164 C-17.53031208 31.83170008 -17.51774324 34.78957177 -17.50514221 37.74827576 C-17.51056449 39.87423685 -17.51768774 42.00019418 -17.52638245 44.12614441 C-17.54460708 49.8927059 -17.53755137 55.65898091 -17.5248661 61.42554736 C-17.51473276 67.46363768 -17.52413285 73.50170363 -17.53041077 79.53979492 C-17.53768673 89.68045958 -17.52810131 99.8210077 -17.50904846 109.96165466 C-17.48728578 121.67977667 -17.49432705 133.39762022 -17.51635408 145.11573547 C-17.53451645 155.18133533 -17.5370621 165.24685144 -17.52659941 175.31246239 C-17.52036837 181.32209814 -17.51951814 187.33160309 -17.53274536 193.34123039 C-17.54431509 198.99252199 -17.5362572 204.64345529 -17.51316833 210.29470825 C-17.50788705 212.36670907 -17.50938505 214.43874012 -17.51821899 216.51072884 C-17.52918099 219.34340319 -17.5154027 222.17493585 -17.49549866 225.00753784 C-17.50442154 225.82379605 -17.51334443 226.64005426 -17.52253771 227.48104757 C-17.44641241 233.08231869 -16.41312036 237.62383873 -12.98756409 242.16062927 C-8.18093975 246.56565118 -2.87975791 246.73050432 3.36244202 246.65510559 C4.74432066 246.66234884 4.74432066 246.66234884 6.15411603 246.66973841 C9.2303905 246.68097895 12.30582812 246.66371308 15.38206482 246.64646912 C17.59170761 246.64861571 19.80134929 246.65249448 22.01098633 246.65797424 C28.00462947 246.66766108 33.99797436 246.65237304 39.99158144 246.63206816 C46.26328978 246.61449295 52.53498897 246.6180223 58.80671692 246.61878967 C69.33660146 246.61691719 79.86638319 246.5996671 90.39622498 246.57225037 C101.22730092 246.54406397 112.05827591 246.52990949 122.88938904 246.53123474 C123.89050093 246.53135461 123.89050093 246.53135461 124.91183729 246.5314769 C125.91123143 246.53159796 125.91123143 246.53159796 126.93081534 246.53172147 C138.64378133 246.53303159 150.35671321 246.52273516 162.06966782 246.50613785 C167.05600175 246.49907276 172.04232112 246.49541144 177.02865982 246.49435043 C182.89736242 246.49234302 188.76595883 246.48014526 194.63462639 246.46001816 C196.79012718 246.45417144 198.94564019 246.45171676 201.10114861 246.45287323 C204.03967805 246.4538533 206.97790918 246.44255666 209.91639709 246.42805481 C210.77252142 246.43115201 211.62864574 246.43424922 212.51071322 246.43744028 C217.62910352 246.39562643 221.83111648 246.16338937 225.77806091 242.53953552 C226.26790466 241.94012146 226.75774841 241.3407074 227.26243591 240.72312927 C227.76259216 240.12629333 228.26274841 239.5294574 228.77806091 238.91453552 C231.65237003 234.83046972 231.16066594 230.381162 231.15960693 225.60881042 C231.16328362 224.72505525 231.16696031 223.84130007 231.17074841 222.93076444 C231.18179671 219.95757554 231.18563103 216.98442158 231.18943787 214.01121521 C231.19570161 211.88422535 231.20234833 209.75723658 231.20935059 207.63024902 C231.22676764 201.84295496 231.23731413 196.05566915 231.24555612 190.26835537 C231.25070446 186.65392602 231.25678024 183.03949925 231.26306725 179.42507172 C231.28212073 168.12004328 231.29635191 156.81502138 231.30467921 145.50997996 C231.3144552 132.45326648 231.34078362 119.39672237 231.38118011 106.34006858 C231.4113212 96.25250724 231.42614616 86.16499451 231.42946023 76.077389 C231.43181285 70.05036933 231.44080123 64.02353057 231.4659214 57.99655914 C231.48917209 52.32648976 231.49344731 46.6567208 231.48316002 40.98661613 C231.48266383 38.90611968 231.48900858 36.82560859 231.50271606 34.74515724 C231.52039241 31.90320488 231.51334961 29.06233562 231.50018311 26.22038269 C231.51115235 25.39848316 231.5221216 24.57658363 231.53342324 23.72977805 C231.47036419 18.0860352 230.21576257 14.82671906 227.01243591 10.16062927 C222.0696478 5.52676542 216.49476583 6.01207224 210.03665161 6.01345825 C209.11937359 6.00978156 208.20209557 6.00610488 207.25702125 6.00231677 C204.17638234 5.99128364 201.09577717 5.98743674 198.01512146 5.98362732 C195.80916741 5.9773625 193.60321441 5.97071568 191.39726257 5.9637146 C185.3992905 5.94630927 179.40132639 5.93575454 173.40333533 5.92750907 C169.6570705 5.9223589 165.91080814 5.91628324 162.16454506 5.90999794 C151.78887479 5.89313143 141.41320609 5.87849565 131.03752422 5.8712492 C128.34662563 5.86933938 125.65572705 5.86741903 122.96482849 5.86546326 C122.29603835 5.86497952 121.6272482 5.86449578 120.93819169 5.86399738 C110.10199051 5.85569536 99.26589965 5.83035357 88.42974665 5.79788258 C77.30009844 5.76480436 66.17049017 5.74713258 55.04078895 5.74360496 C48.79357492 5.74125225 42.54653541 5.73226257 36.2993679 5.70714378 C30.42327363 5.68389822 24.54746924 5.67961582 18.67134094 5.68990517 C16.51505381 5.69040145 14.35875257 5.68405375 12.20250893 5.67034912 C9.25771447 5.65268009 6.31396603 5.6597121 3.36917114 5.67288208 C2.51682615 5.66191283 1.66448115 5.65094359 0.78630751 5.63964194 C-6.44659124 5.71768776 -10.86633587 7.35155013 -15.39331818 13.34649754 Z " fill="#BEBFC1" transform="translate(72.98756408691406,53.83937072753906)"/>
<path d="M0 0 C0.97583038 -0.00701431 1.95166077 -0.01402863 2.95706177 -0.02125549 C4.02624847 -0.01361176 5.09543518 -0.00596802 6.19702148 0.00190735 C7.88757156 -0.00356865 7.88757156 -0.00356865 9.61227417 -0.00915527 C13.34770653 -0.01727902 17.08270759 -0.00363506 20.81811523 0.01094055 C23.40738932 0.01145894 25.9966638 0.01094207 28.5859375 0.00942993 C34.01658459 0.00951974 39.44707289 0.01962899 44.87768555 0.03804016 C51.15739152 0.05920799 57.43691463 0.06271774 63.71664906 0.0564782 C69.75602318 0.05078456 75.79531599 0.05653445 81.83468628 0.06765175 C84.40558614 0.07150887 86.97649153 0.07264985 89.5473938 0.0710659 C93.13643982 0.07069624 96.72520503 0.08328799 100.31420898 0.0995636 C101.91798904 0.09584747 101.91798904 0.09584747 103.5541687 0.09205627 C105.01791428 0.10268349 105.01791428 0.10268349 106.51123047 0.11352539 C107.78437355 0.1166047 107.78437355 0.1166047 109.08323669 0.11974621 C111.25561523 0.3742218 111.25561523 0.3742218 114.25561523 2.3742218 C114.55260431 5.0551037 114.65471185 7.50553672 114.62792969 10.18867493 C114.63158035 10.99530075 114.63523102 11.80192657 114.63899231 12.63299561 C114.64711835 15.30736651 114.63347094 17.98113539 114.61889648 20.6554718 C114.61837812 22.50870259 114.61889489 24.36193394 114.6204071 26.21516418 C114.62031729 30.10241384 114.60986895 33.98945649 114.59179688 37.87666321 C114.56910937 42.86720218 114.5685646 47.85743849 114.57531452 52.84801483 C114.57865106 56.67578333 114.57203038 60.50348244 114.56218529 64.33123779 C114.55832754 66.17169838 114.55718744 68.01216667 114.55877113 69.85263062 C114.55914071 72.42182709 114.54655197 74.99063099 114.53027344 77.55976868 C114.53275085 78.32554733 114.53522827 79.09132599 114.53778076 79.88031006 C114.48435636 85.14548068 114.48435636 85.14548068 112.25561523 87.3742218 C110.17225647 87.6286974 110.17225647 87.6286974 107.54882812 87.63491821 C106.05973434 87.64554543 106.05973434 87.64554543 104.54055786 87.65638733 C103.44750336 87.65390991 102.35444885 87.6514325 101.22827148 87.64888 C99.50627029 87.6565464 99.50627029 87.6565464 97.7494812 87.66436768 C93.93897347 87.67831534 90.12864552 87.67730314 86.31811523 87.67500305 C83.68017509 87.67888685 81.04223557 87.68322085 78.40429688 87.68798828 C72.86936843 87.69620783 67.334491 87.69528856 61.79956055 87.68989563 C55.39542121 87.68385192 48.99150136 87.6961749 42.58739948 87.7174657 C36.43323139 87.73717567 30.27916629 87.74025914 24.12496948 87.73673058 C21.50299565 87.7372457 18.88101845 87.74251905 16.25906372 87.7525425 C12.60018767 87.76481337 8.94182616 87.75817153 5.28295898 87.74653625 C4.18990448 87.75417999 3.09684998 87.76182373 1.97067261 87.7696991 C0.97794342 87.76268478 -0.01478577 87.75567047 -1.03759766 87.7484436 C-1.90332901 87.74861135 -2.76906036 87.74877909 -3.661026 87.74895191 C-4.34853439 87.62529098 -5.03604279 87.50163004 -5.74438477 87.3742218 C-8.1997401 83.6911888 -8.03326834 80.90576974 -8.01904297 76.64570618 C-8.0241539 75.86004776 -8.02926483 75.07438934 -8.03453064 74.2649231 C-8.04843995 71.66586203 -8.04746907 69.06706568 -8.04516602 66.4679718 C-8.04905183 64.66340536 -8.05338627 62.85883984 -8.05815125 61.05427551 C-8.06561605 57.27140844 -8.06532002 53.48863469 -8.06005859 49.70576477 C-8.05425954 44.85317683 -8.07120413 40.00097002 -8.09440327 35.14844513 C-8.10911877 31.42186746 -8.11001537 27.69538209 -8.10689354 23.96878052 C-8.10740772 22.17937464 -8.11266352 20.38996372 -8.12270546 18.60058594 C-8.13501228 16.10104929 -8.12831359 13.60226166 -8.11669922 11.10273743 C-8.12434296 10.36082657 -8.13198669 9.61891571 -8.13986206 8.85452271 C-8.0883203 3.84801626 -8.0883203 3.84801626 -6.51751995 1.68413258 C-4.21154136 -0.01941841 -2.85344602 -0.00056393 0 0 Z M-0.74438477 7.3742218 C-0.74438477 31.1342218 -0.74438477 54.8942218 -0.74438477 79.3742218 C34.89561523 79.3742218 70.53561523 79.3742218 107.25561523 79.3742218 C107.25561523 55.6142218 107.25561523 31.8542218 107.25561523 7.3742218 C71.61561523 7.3742218 35.97561523 7.3742218 -0.74438477 7.3742218 Z " fill="#BEBFC0" transform="translate(133.744384765625,113.62577819824219)"/>
<path d="M0 0 C19.12656908 -0.87584946 19.12656908 -0.87584946 24.62255859 2.43310547 C26.59912109 4.86279297 26.59912109 4.86279297 28.41162109 7.61279297 C31.27385487 11.53814215 34.68929848 14.03304165 38.59912109 16.86279297 C39.29545654 17.37205322 39.99179199 17.88131348 40.70922852 18.40600586 C49.1480365 24.94250749 49.1480365 24.94250749 58.59912109 29.61279297 C58.59912109 31.92279297 58.59912109 34.23279297 58.59912109 36.61279297 C26.25912109 36.61279297 -6.08087891 36.61279297 -39.40087891 36.61279297 C-39.40087891 30.61279297 -39.40087891 30.61279297 -38.02978516 29.13623047 C-37.34787109 28.75724609 -36.66595703 28.37826172 -35.96337891 27.98779297 C-17.9935084 17.54945092 -17.9935084 17.54945092 -4.13720703 2.55175781 C-2.40087891 0.61279297 -2.40087891 0.61279297 0 0 Z " fill="#BDBEC0" transform="translate(177.40087890625,152.38720703125)"/>
<path d="M0 0 C2.34690243 1.6975168 2.95077151 2.82230358 3.73046875 5.63671875 C4.60832543 11.49659966 5.22791976 17.07408635 5 23 C2.69 23 0.38 23 -2 23 C-2.33951619 21.43883181 -2.67132544 19.87598662 -3 18.3125 C-3.185625 17.44238281 -3.37125 16.57226562 -3.5625 15.67578125 C-3.98972047 13.06287036 -4.07616201 10.64186962 -4 8 C-6.27128539 8.28812527 -8.54200406 8.58071837 -10.8125 8.875 C-12.07707031 9.03742188 -13.34164062 9.19984375 -14.64453125 9.3671875 C-17.8170415 9.80194984 -20.95189577 10.35567437 -24.09765625 10.953125 C-30.90448822 12.21397524 -37.75624487 13.0306851 -44.625 13.875 C-54.57359531 15.11779152 -64.48149472 16.49096994 -74.375 18.125 C-98.30327134 22.06617176 -98.30327134 22.06617176 -110 22 C-109.81824219 22.97195312 -109.63648437 23.94390625 -109.44921875 24.9453125 C-104.75141214 50.49369853 -103.19069495 75.05035988 -104 101 C-104.66 101 -105.32 101 -106 101 C-107.77218248 95.40271079 -108.67479561 89.92358692 -109.40234375 84.10546875 C-109.58719078 82.68612785 -109.58719078 82.68612785 -109.77577209 81.2381134 C-110.16805425 78.2218682 -110.55335796 75.20479185 -110.9375 72.1875 C-111.44253359 68.24295236 -111.9515312 64.29894762 -112.46484375 60.35546875 C-112.58964615 59.39251892 -112.71444855 58.42956909 -112.84303284 57.43743896 C-113.7492978 50.57159451 -114.81303995 43.74433301 -116.07261658 36.93412781 C-117.26534945 30.25608589 -117.29377636 23.76773697 -117 17 C-114.22471021 15.47265407 -111.91944984 14.67888795 -108.78125 14.2890625 C-107.53093994 14.12700317 -107.53093994 14.12700317 -106.25537109 13.96166992 C-104.8914624 13.79501831 -104.8914624 13.79501831 -103.5 13.625 C-101.48163591 13.36432382 -99.46341259 13.10255594 -97.4453125 12.83984375 C-95.85251465 12.63464111 -95.85251465 12.63464111 -94.22753906 12.42529297 C-88.93633029 11.72807015 -83.65649716 10.95426969 -78.375 10.1875 C-69.53898544 8.91253863 -60.6980523 7.68026351 -51.8515625 6.48046875 C-50.38969009 6.28208656 -50.38969009 6.28208656 -48.89828491 6.07969666 C-44.02550461 5.41902269 -39.15238168 4.76100056 -34.27880859 4.10620117 C-25.92433245 2.97895183 -17.58515838 1.84397233 -9.28344727 0.36694336 C-6.05229185 -0.15229395 -3.26257987 -0.34708296 0 0 Z " fill="#BFC0C2" transform="translate(227,87)"/>
<path d="M0 0 C2.93423195 1.79646854 4.47205355 2.9441071 6 6 C6.37593152 10.98109259 6.1765161 14.05673864 3 18 C0.24116669 20.16232881 -1.51542103 20.93942763 -5 21.375 C-8.45001843 20.9437477 -10.26337663 20.12848485 -13 18 C-15.30726002 15.03352283 -15.49531512 11.7499092 -15.36328125 8.0390625 C-14.86383654 5.23572769 -13.72477079 3.12718888 -11.7578125 1.0703125 C-8.09767757 -1.15830299 -4.08033421 -0.80400674 0 0 Z " fill="#BEBFC1" transform="translate(162,132)"/>
<path d="M0 0 C2.44597914 1.90242822 3.35040209 2.80586139 4.25 5.75 C4.70466086 10.75126944 4.34261015 13.74106092 1.25 17.75 C-2.46679658 20.22786438 -5.44387533 20.3879444 -9.75 19.75 C-12.6875 18.375 -12.6875 18.375 -14.75 15.75 C-16.00150069 11.14043534 -16.33278676 7.2223034 -14.5625 2.75 C-10.41888985 -1.82225947 -5.66553315 -2.57524234 0 0 Z " fill="#C3C3C5" transform="translate(146.75,220.25)"/>
<path d="M0 0 C9.9609375 -0.29296875 9.9609375 -0.29296875 13 0 C15.43642676 3.65464013 15.07959834 5.70168967 15 10 C15.33 10.33 15.66 10.66 16 11 C16.4603413 16.29392491 16.4603413 16.29392491 14.90234375 18.68359375 C10.83715841 21.49666862 4.67427104 20.13883973 0 20 C0 13.4 0 6.8 0 0 Z " fill="#C3C4C6" transform="translate(205,253)"/>
<path d="M0 0 C2.31 0 4.62 0 7 0 C8.59138085 4.17737474 9.21278058 7.53160785 9 12 C9.66 12 10.32 12 11 12 C11.144375 10.7625 11.28875 9.525 11.4375 8.25 C11.78688502 5.43495501 12.20379366 2.7298503 13 0 C15.31 0 17.62 0 20 0 C20 6.6 20 13.2 20 20 C18.68 20 17.36 20 16 20 C15.67 16.7 15.34 13.4 15 10 C14.01 13.3 13.02 16.6 12 20 C10.68 20 9.36 20 8 20 C7.01 16.04 6.02 12.08 5 8 C4.67 11.96 4.34 15.92 4 20 C2.68 20 1.36 20 0 20 C0 13.4 0 6.8 0 0 Z " fill="#C1C2C4" transform="translate(169,220)"/>
<path d="M0 0 C1.65 0 3.3 0 5 0 C6.80078125 2.1875 6.80078125 2.1875 8.3125 5 C8.82425781 5.928125 9.33601563 6.85625 9.86328125 7.8125 C10.23839844 8.534375 10.61351563 9.25625 11 10 C11.33 6.7 11.66 3.4 12 0 C13.32 0 14.64 0 16 0 C16 6.6 16 13.2 16 20 C11 19 11 19 9.19921875 16.93359375 C8.70035156 16.10988281 8.20148438 15.28617188 7.6875 14.4375 C7.17574219 13.61121094 6.66398437 12.78492188 6.13671875 11.93359375 C5.76160156 11.29550781 5.38648437 10.65742188 5 10 C4.67 13.3 4.34 16.6 4 20 C2.68 20 1.36 20 0 20 C0 13.4 0 6.8 0 0 Z " fill="#C1C2C4" transform="translate(112,220)"/>
<path d="M0 0 C2.375 1 2.375 1 4 2 C4 2.66 4 3.32 4 4 C4.66 4 5.32 4 6 4 C6 4.99 6 5.98 6 7 C4.35 7 2.7 7 1 7 C0.67 6.34 0.34 5.68 0 5 C-1.99954746 4.95745644 -4.00041636 4.95919217 -6 5 C-7.2245178 6.00469623 -7.2245178 6.00469623 -7.1328125 8.03125 C-7.13023437 8.8459375 -7.12765625 9.660625 -7.125 10.5 C-7.12757813 11.3146875 -7.13015625 12.129375 -7.1328125 12.96875 C-7.2245178 14.99530377 -7.2245178 14.99530377 -6 16 C-3.32941149 16.14115161 -0.67567762 16.04247107 2 16 C2 15.01 2 14.02 2 13 C0.35 13 -1.3 13 -3 13 C-3 12.01 -3 11.02 -3 10 C-0.03 10 2.94 10 6 10 C6.23397834 12.85453575 6.42468097 15.203724 6 18 C3.24487826 20.75512174 0.70039094 21.19213053 -3.0625 21.375 C-8.43267504 20.86355476 -8.43267504 20.86355476 -11 18 C-13.00728471 14.28652329 -13.35629648 11.18648367 -13 7 C-12.08791905 4.09792427 -11.16880375 3.1312918 -8.75 1.25 C-5.53102389 -0.21317096 -3.50195682 -0.3725486 0 0 Z " fill="#C1C2C4" transform="translate(225,219)"/>
<path d="M0 0 C4.95 0 9.9 0 15 0 C15 1.32 15 2.64 15 4 C11.37 4 7.74 4 4 4 C4 5.32 4 6.64 4 8 C7.3 8 10.6 8 14 8 C14 9.32 14 10.64 14 12 C10.7 12 7.4 12 4 12 C4 13.65 4 15.3 4 17 C7.63 17 11.26 17 15 17 C15 18.32 15 19.64 15 21 C10.05 21 5.1 21 0 21 C0 14.07 0 7.14 0 0 Z " fill="#C5C5C7" transform="translate(242,252)"/>
<path d="M0 0 C1.65 0 3.3 0 5 0 C7.87884807 6.59278183 10.50865808 12.95001999 12 20 C10.68 20 9.36 20 8 20 C7.67 18.68 7.34 17.36 7 16 C4.03 16 1.06 16 -2 16 C-2.33 17.65 -2.66 19.3 -3 21 C-4.32 21 -5.64 21 -7 21 C-6.38169051 15.97525707 -4.87023224 11.75279506 -2.9375 7.125 C-2.65583984 6.43664062 -2.37417969 5.74828125 -2.08398438 5.0390625 C-1.39484734 3.35710091 -0.69819202 1.67822303 0 0 Z " fill="#BFC0C2" transform="translate(110,252)"/>
<path d="M0 0 C1.98 0 3.96 0 6 0 C6.98188561 2.58232914 7.96059589 5.16578683 8.9375 7.75 C9.21529297 8.47960937 9.49308594 9.20921875 9.77929688 9.9609375 C10.04677734 10.66992188 10.31425781 11.37890625 10.58984375 12.109375 C10.83597412 12.75874023 11.08210449 13.40810547 11.33569336 14.07714844 C12.01125435 16.032576 12.52800046 17.98665757 13 20 C11.35 20 9.7 20 8 20 C7.67 18.35 7.34 16.7 7 15 C4.03 15 1.06 15 -2 15 C-2.33 16.65 -2.66 18.3 -3 20 C-4.32 20 -5.64 20 -7 20 C-6.29937517 15.43263559 -4.68729793 11.4300495 -2.9375 7.1875 C-2.51500977 6.14819336 -2.51500977 6.14819336 -2.08398438 5.08789062 C-1.39325027 3.39032376 -0.69716272 1.69493688 0 0 Z " fill="#C0C1C2" transform="translate(198,220)"/>
<path d="M0 0 C1.98 0 3.96 0 6 0 C6.98766013 2.20486819 7.96518516 4.41337311 8.9375 6.625 C9.21529297 7.24246094 9.49308594 7.85992187 9.77929688 8.49609375 C11.45160411 12.32426694 12.4961308 15.85424076 13 20 C11.68 20 10.36 20 9 20 C8.67 18.35 8.34 16.7 8 15 C5.03 15 2.06 15 -1 15 C-1.33 16.65 -1.66 18.3 -2 20 C-3.32 20 -4.64 20 -6 20 C-4.63125844 13.04223041 -2.5466871 6.61396893 0 0 Z " fill="#BFC0C1" transform="translate(189,253)"/>
<path d="M0 0 C1.2065625 0.0309375 1.2065625 0.0309375 2.4375 0.0625 C3.77370809 3.20712004 5.10598288 6.35339113 6.4375 9.5 C6.8190625 10.39783203 7.200625 11.29566406 7.59375 12.22070312 C7.9546875 13.07470703 8.315625 13.92871094 8.6875 14.80859375 C9.02265625 15.59935303 9.3578125 16.3901123 9.703125 17.20483398 C10.4375 19.0625 10.4375 19.0625 10.4375 20.0625 C8.7875 20.0625 7.1375 20.0625 5.4375 20.0625 C5.1075 18.4125 4.7775 16.7625 4.4375 15.0625 C1.4675 15.0625 -1.5025 15.0625 -4.5625 15.0625 C-4.8925 16.7125 -5.2225 18.3625 -5.5625 20.0625 C-6.8825 20.0625 -8.2025 20.0625 -9.5625 20.0625 C-8.9524268 15.49388367 -7.74729121 11.53544276 -6.0625 7.25 C-5.6190625 6.10917969 -5.175625 4.96835937 -4.71875 3.79296875 C-3.14505474 0.07670865 -3.14505474 0.07670865 0 0 Z " fill="#C1C2C4" transform="translate(147.5625,252.9375)"/>
<path d="M0 0 C4.62 0 9.24 0 14 0 C14 0.99 14 1.98 14 3 C10.7 3 7.4 3 4 3 C4 4.32 4 5.64 4 7 C7.3 7 10.6 7 14 7 C14 8.32 14 9.64 14 11 C10.7 11 7.4 11 4 11 C4 12.65 4 14.3 4 16 C7.63 16 11.26 16 15 16 C15 17.32 15 18.64 15 20 C10.05 20 5.1 20 0 20 C0 13.4 0 6.8 0 0 Z " fill="#C1C2C4" transform="translate(235,220)"/>
<path d="M0 0 C0.88107422 -0.03158203 1.76214844 -0.06316406 2.66992188 -0.09570312 C6.4321863 -0.0759759 9.02973671 -0.01807261 12.02783203 2.39306641 C16.0625 7.01984884 16.0625 7.01984884 16.0625 8.8125 C15.33804688 8.71710938 14.61359375 8.62171875 13.8671875 8.5234375 C8.20931803 7.87466847 4.47415163 7.87976727 -0.9375 9.8125 C-2.62327711 9.19575228 -4.29198038 8.52977778 -5.9375 7.8125 C-8.50490432 8.05930201 -8.50490432 8.05930201 -10.9375 8.8125 C-12.0821875 9.0909375 -12.0821875 9.0909375 -13.25 9.375 C-13.806875 9.519375 -14.36375 9.66375 -14.9375 9.8125 C-14.9375 6.30717914 -13.96716228 4.70779485 -11.67138672 2.10009766 C-8.18866267 -0.48620009 -4.17604482 -0.08820488 0 0 Z " fill="#FAFBFB" transform="translate(186.9375,156.1875)"/>
<path d="M0 0 C2.475 0.495 2.475 0.495 5 1 C6.32 4.96 7.64 8.92 9 13 C10.32 9.04 11.64 5.08 13 1 C14.65 1 16.3 1 18 1 C17.26059381 5.21140048 16.09150787 9.19151416 14.75 13.25 C14.35296875 14.49265625 13.9559375 15.7353125 13.546875 17.015625 C12 20 12 20 9.328125 20.921875 C8.55984375 20.94765625 7.7915625 20.9734375 7 21 C5.82504857 18.06574629 4.66149148 15.12710487 3.5 12.1875 C3.16613281 11.35412109 2.83226563 10.52074219 2.48828125 9.66210938 C2.17246094 8.85966797 1.85664062 8.05722656 1.53125 7.23046875 C1.23798828 6.49207764 0.94472656 5.75368652 0.64257812 4.99291992 C0 3 0 3 0 0 Z " fill="#C0C1C3" transform="translate(121,252)"/>
<path d="M0 0 C3.0625 0.4375 3.0625 0.4375 5 2.5625 C6.28155896 6.03024776 6.08070951 7.9129286 5.0625 11.4375 C3.0625 13.4375 3.0625 13.4375 0.0625 13.6875 C-2.9375 13.4375 -2.9375 13.4375 -4.9375 11.4375 C-5.203125 9.34375 -5.203125 9.34375 -5.1875 6.9375 C-5.19265625 6.1434375 -5.1978125 5.349375 -5.203125 4.53125 C-4.75517727 1.00036792 -3.37326667 0.50240142 0 0 Z " fill="#FAFBFB" transform="translate(140.9375,222.5625)"/>
<path d="M0 0 C1.32 0 2.64 0 4 0 C4 5.28 4 10.56 4 16 C7.3 16 10.6 16 14 16 C14 17.32 14 18.64 14 20 C9.38 20 4.76 20 0 20 C0 13.4 0 6.8 0 0 Z " fill="#C5C6C7" transform="translate(160,253)"/>
<path d="M0 0 C1.32 0 2.64 0 4 0 C4 5.28 4 10.56 4 16 C7.3 16 10.6 16 14 16 C14 17.32 14 18.64 14 20 C9.38 20 4.76 20 0 20 C0 13.4 0 6.8 0 0 Z " fill="#BEBFC1" transform="translate(225,253)"/>
<path d="M0 0 C1.65 0 3.3 0 5 0 C5 6.6 5 13.2 5 20 C3.35 20 1.7 20 0 20 C0 13.4 0 6.8 0 0 Z " fill="#C8C9CB" transform="translate(161,220)"/>
<path d="M0 0 C1.65 0 3.3 0 5 0 C6.33620809 3.14462004 7.66848288 6.29089113 9 9.4375 C9.3815625 10.33533203 9.763125 11.23316406 10.15625 12.15820312 C10.5171875 13.01220703 10.878125 13.86621094 11.25 14.74609375 C11.58515625 15.53685303 11.9203125 16.3276123 12.265625 17.14233398 C13 19 13 19 13 20 C11.35 20 9.7 20 8 20 C7.67 18.35 7.34 16.7 7 15 C4.03 14.505 4.03 14.505 1 14 C1.33 13.34 1.66 12.68 2 12 C2.99 12 3.98 12 5 12 C4.649375 10.906875 4.29875 9.81375 3.9375 8.6875 C3 5 3 5 4 2 C2.68 2 1.36 2 0 2 C0 1.34 0 0.68 0 0 Z " fill="#BEBFC1" transform="translate(145,253)"/>
<path d="M0 0 C3.96 0 7.92 0 12 0 C12 6 12 6 10.91796875 7.86328125 C8.04119912 9.56825062 5.61887901 9.28570928 2.3125 9.1875 C0.54326172 9.14689453 0.54326172 9.14689453 -1.26171875 9.10546875 C-2.16535156 9.07066406 -3.06898438 9.03585937 -4 9 C-4 8.67 -4 8.34 -4 8 C-0.04 8 3.92 8 8 8 C8 7.34 8 6.68 8 6 C5.36 6 2.72 6 0 6 C0 4.02 0 2.04 0 0 Z " fill="#C8C9CA" transform="translate(209,264)"/>
<path d="M0 0 C1.65 0 3.3 0 5 0 C5.86355778 1.95421035 6.71559934 3.91351347 7.5625 5.875 C8.03816406 6.96554687 8.51382813 8.05609375 9.00390625 9.1796875 C9.33261719 10.11039062 9.66132812 11.04109375 10 12 C9.67 12.66 9.34 13.32 9 14 C6.03 13.67 3.06 13.34 0 13 C0.67170806 9.1936543 1.72746564 5.64793184 3 2 C1.02 2.99 1.02 2.99 -1 4 C-0.67 2.68 -0.34 1.36 0 0 Z " fill="#C7C7C9" transform="translate(110,252)"/>
<path d="M0 0 C1.32 0 2.64 0 4 0 C4 6.6 4 13.2 4 20 C2.68 20 1.36 20 0 20 C0 13.4 0 6.8 0 0 Z " fill="#C2C2C4" transform="translate(177,252)"/>
<path d="M0 0 C1.32 0 2.64 0 4 0 C3.67 6.27 3.34 12.54 3 19 C2.01 19 1.02 19 0 19 C0 12.73 0 6.46 0 0 Z " fill="#BDBEC0" transform="translate(112,220)"/>
<path d="M0 0 C0.33 0 0.66 0 1 0 C1.33 1.65 1.66 3.3 2 5 C2.66 5 3.32 5 4 5 C5.4606285 7.64738916 6 8.89448334 6 12 C3.36 12 0.72 12 -2 12 C-3.15957207 8.52128379 -2.77456651 7.65780355 -1.5625 4.3125 C-1.13130859 3.10013672 -1.13130859 3.10013672 -0.69140625 1.86328125 C-0.46324219 1.24839844 -0.23507813 0.63351563 0 0 Z " fill="#C2C3C5" transform="translate(189,253)"/>
<path d="M0 0 C3.96 0 7.92 0 12 0 C12 1.32 12 2.64 12 4 C7.38 4 2.76 4 -2 4 C-2 3.34 -2 2.68 -2 2 C-1.34 2 -0.68 2 0 2 C0 1.34 0 0.68 0 0 Z " fill="#C6C6C8" transform="translate(227,269)"/>
<path d="M0 0 C0.99 0 1.98 0 3 0 C7 4.22857143 7 4.22857143 7 8 C5.02 8.33 3.04 8.66 1 9 C-1.125 3.375 -1.125 3.375 0 0 Z " fill="#C2C3C5" transform="translate(196,224)"/>
<path d="M0 0 C2 4 2 4 1.375 6.0625 C-0.16722416 8.23563404 -1.79246782 9.52831188 -4 11 C-4.99 10.01 -5.98 9.02 -7 8 C-4.69 5.36 -2.38 2.72 0 0 Z " fill="#C4C5C6" transform="translate(174,154)"/>
<path d="M0 0 C2.64 0 5.28 0 8 0 C7.67 1.65 7.34 3.3 7 5 C4.69 5 2.38 5 0 5 C0 3.35 0 1.7 0 0 Z " fill="#FAFCFC" transform="translate(209,264)"/>
<path d="M0 0 C0.99 0 1.98 0 3 0 C3.08082094 1.95766281 3.13910778 3.91626728 3.1875 5.875 C3.23970703 7.51082031 3.23970703 7.51082031 3.29296875 9.1796875 C3.19628906 10.11039062 3.09960938 11.04109375 3 12 C2.01 12.66 1.02 13.32 0 14 C0 9.38 0 4.76 0 0 Z " fill="#BBBCBD" transform="translate(160,253)"/>
<path d="M0 0 C2.12438339 -0.08078641 4.2496323 -0.13909141 6.375 -0.1875 C7.55835938 -0.22230469 8.74171875 -0.25710937 9.9609375 -0.29296875 C11.46527344 -0.14794922 11.46527344 -0.14794922 13 0 C15 3 15 3 15 7 C14.01 6.67 13.02 6.34 12 6 C12 4.68 12 3.36 12 2 C11.37351563 2.01160156 10.74703125 2.02320313 10.1015625 2.03515625 C9.28429687 2.04417969 8.46703125 2.05320313 7.625 2.0625 C6.81289062 2.07410156 6.00078125 2.08570313 5.1640625 2.09765625 C3 2 3 2 1 1 C0.67 1.66 0.34 2.32 0 3 C0 2.01 0 1.02 0 0 Z " fill="#BABBBD" transform="translate(205,253)"/>
<path d="M0 0 C3.96 0 7.92 0 12 0 C12 0.99 12 1.98 12 3 C10.37509046 3.02698189 8.75005367 3.04638757 7.125 3.0625 C5.76761719 3.07990234 5.76761719 3.07990234 4.3828125 3.09765625 C2 3 2 3 0 2 C0 1.34 0 0.68 0 0 Z " fill="#BEBFC1" transform="translate(245,253)"/>
<path d="M0 0 C0.928125 0.103125 1.85625 0.20625 2.8125 0.3125 C1.87659496 1.4180189 0.93870142 2.52185453 0 3.625 C-0.78310547 4.54732422 -0.78310547 4.54732422 -1.58203125 5.48828125 C-3.05922469 7.16674679 -4.58789131 8.75132034 -6.1875 10.3125 C-6.44906512 7.26090693 -6.209574 5.36768499 -5.0625 2.5 C-3.1875 0.3125 -3.1875 0.3125 0 0 Z " fill="#BDBDBF" transform="translate(139.1875,219.6875)"/>
<path d="M0 0 C2.475 0.495 2.475 0.495 5 1 C5.33 2.65 5.66 4.3 6 6 C5.01 6 4.02 6 3 6 C2.67 6.66 2.34 7.32 2 8 C0.74335022 5.09399739 0 3.20395416 0 0 Z " fill="#C6C7C7" transform="translate(121,252)"/>
<path d="M0 0 C2.31 0 4.62 0 7 0 C7 1.32 7 2.64 7 4 C4.69 4 2.38 4 0 4 C0 2.68 0 1.36 0 0 Z " fill="#FCFCFC" transform="translate(209,256)"/>
<path d="M0 0 C1.32 0 2.64 0 4 0 C3.67 2.31 3.34 4.62 3 7 C1.68 7 0.36 7 -1 7 C-1.04254356 5.00045254 -1.04080783 2.99958364 -1 1 C-0.67 0.67 -0.34 0.34 0 0 Z " fill="#BEBEC0" transform="translate(178,233)"/>
<path d="M0 0 C0.165 0.639375 0.33 1.27875 0.5 1.9375 C1.781786 4.16119241 1.781786 4.16119241 3.9140625 4.48828125 C5.93575155 4.7275978 7.96841939 4.86893028 10 5 C10 5.66 10 6.32 10 7 C6.37 7 2.74 7 -1 7 C-0.67 4.69 -0.34 2.38 0 0 Z " fill="#B9BABD" transform="translate(207,265)"/>
<path d="M0 0 C0.99 0.33 1.98 0.66 3 1 C2.67 2.98 2.34 4.96 2 7 C0.68 7 -0.64 7 -2 7 C-1.125 1.125 -1.125 1.125 0 0 Z " fill="#C3C4C5" transform="translate(140,266)"/>
<path d="M0 0 C2.31 0 4.62 0 7 0 C7.33 1.32 7.66 2.64 8 4 C5.36 4 2.72 4 0 4 C0 2.68 0 1.36 0 0 Z " fill="#C7C8CA" transform="translate(218,236)"/>
<path d="M0 0 C1.74627478 2.61941217 2.38722388 4.03824877 3 7 C1.35 7 -0.3 7 -2 7 C-2.33 5.35 -2.66 3.7 -3 2 C-2.01 2 -1.02 2 0 2 C0 1.34 0 0.68 0 0 Z " fill="#C5C6C8" transform="translate(208,233)"/>
<path d="M0 0 C3 3.625 3 3.625 3 7 C1.35 7 -0.3 7 -2 7 C-1.125 1.125 -1.125 1.125 0 0 Z " fill="#EEEFF1" transform="translate(147,258)"/>
<path d="M0 0 C3 3.625 3 3.625 3 7 C1.35 7 -0.3 7 -2 7 C-1.125 1.125 -1.125 1.125 0 0 Z " fill="#EFF0F1" transform="translate(192,258)"/>
<path d="M0 0 C3 3.625 3 3.625 3 7 C1.35 7 -0.3 7 -2 7 C-1.125 2.25 -1.125 2.25 0 0 Z " fill="#F0F1F2" transform="translate(112,258)"/>
<path d="M0 0 C1.5 1.3125 1.5 1.3125 3 3 C3 3.99 3 4.98 3 6 C1.35 6 -0.3 6 -2 6 C-1.34 4.02 -0.68 2.04 0 0 Z " fill="#F2F3F4" transform="translate(200,226)"/>
<path d="M0 0 C2.875 -0.125 2.875 -0.125 6 0 C6.66 0.66 7.32 1.32 8 2 C7.01 3.485 7.01 3.485 6 5 C4.35 4.67 2.7 4.34 1 4 C1.33 3.34 1.66 2.68 2 2 C1.34 1.34 0.68 0.68 0 0 Z " fill="#C8C8CA" transform="translate(138,219)"/>
<path d="M0 0 C-0.33 0.99 -0.66 1.98 -1 3 C-5.75 2.25 -5.75 2.25 -8 0 C-5.13822943 -1.43088528 -3.06624227 -0.59991697 0 0 Z " fill="#C3C4C6" transform="translate(198,164)"/>
<path d="M0 0 C2.97 0 5.94 0 9 0 C9 0.66 9 1.32 9 2 C9.66 2.33 10.32 2.66 11 3 C10.01 3.33 9.02 3.66 8 4 C7.67 3.01 7.34 2.02 7 1 C4.69 1.33 2.38 1.66 0 2 C0 1.34 0 0.68 0 0 Z " fill="#B9BABC" transform="translate(209,261)"/>
<path d="M0 0 C2.35953094 2.35953094 2.49141413 3.77895617 3 7 C1.35 6.67 -0.3 6.34 -2 6 C-1.34 4.02 -0.68 2.04 0 0 Z " fill="#C4C5C7" transform="translate(117,259)"/>
<path d="M0 0 C0.66 0.99 1.32 1.98 2 3 C1.34 4.32 0.68 5.64 0 7 C0.66 7.66 1.32 8.32 2 9 C0.68 9 -0.64 9 -2 9 C-1.34 6.03 -0.68 3.06 0 0 Z " fill="#CBCCCD" transform="translate(185,264)"/>
<path d="M0 0 C2 3 2 3 3 6 C1.35 6 -0.3 6 -2 6 C-1.49396008 3.83125748 -1.00016187 2.00032373 0 0 Z " fill="#C8C9CA" transform="translate(155,267)"/>
</svg>
